# xmcd
#
# Track frame offsets:
#	150
#	16606
#	38671
#	53632
#	71236
#	87347
#	100431
#	119383
#	134103
#	155950
#
# Disc length: 2307 seconds
#
# Revision: 1
# Processed by: cddbd v1.5.2PL0 Copyright (c) Steve Scherf et al.
# Submitted via: audiograbber 1.83.01
#
DISCID=8b09010a
DTITLE=Rascal Flatts - The Greatest Gift Of All
DYEAR=2016
DGENRE=Country
TTITLE0=Joy To The World
TTITLE1=O Holy Night
TTITLE2=Deck The Halls
TTITLE3=A Strange Way To Save The World
TTITLE4=Go Tell It On The Mountain
TTITLE5=Let It Snow
TTITLE6=Silent Night
TTITLE7=Someday At Christmas
TTITLE8=The First Noel
TTITLE9=Hark! The Herald Angels Sing
EXTD=
EXTT0=
EXTT1=
EXTT2=
EXTT3=
EXTT4=
EXTT5=
EXTT6=
EXTT7=
EXTT8=
EXTT9=
PLAYORDER=
